<svg xmlns="http://www.w3.org/2000/svg" width="200" height="80" viewBox="2 15 117 14">
    <path id="TEC" fill="#fff" d="M112.905 0c-4.443 0-8.545 1.106-12.305 3.315-3.739 2.187-6.676 5.278-8.816 9.274-2.14 3.996-3.21 8.38-3.21 13.152 0 5.923 1.622 11.072 4.866 15.445C97.79 47.062 103.926 50 111.85 50c4.396 0 8.19-.988 11.388-2.963 3.197-1.974 5.995-5.09 8.393-9.344l-1.095-.705c-2.844 3.95-5.452 6.594-7.825 7.934-2.375 1.316-5.116 1.974-8.219 1.974-3.572 0-6.756-.846-9.555-2.54-2.772-1.69-4.854-4.124-6.241-7.297-1.388-3.174-2.08-6.924-2.08-11.25 0-5.242.727-9.626 2.186-13.151 1.482-3.526 3.503-6.087 6.065-7.685 2.563-1.622 5.43-2.434 8.604-2.434 3.783 0 7.028 1.07 9.73 3.208 2.704 2.14 4.786 5.642 6.243 10.508h1.092L129.444 0h-1.234c-.26 1.128-.695 2.01-1.306 2.645a2.332 2.332 0 01-1.659.67c-.422 0-1.127-.26-2.115-.777C119.77.846 116.363 0 112.907 0h-.002zM.564 1.096L0 12.308h1.34c.164-2.163.68-3.88 1.55-5.15.87-1.268 1.918-2.127 3.14-2.574.94-.33 2.526-.494 4.76-.494h5.746v36.53c0 2.679-.257 4.397-.774 5.15-.847 1.221-2.28 1.831-4.303 1.831H9.767v1.303H30.04v-1.303h-1.658c-1.857 0-3.232-.494-4.125-1.48-.635-.73-.954-2.561-.954-5.5V4.091h6.736c1.975 0 3.56.33 4.76.987 1.223.636 2.198 1.632 2.928 2.996.445.846.8 2.258 1.057 4.234h1.34l-.53-11.213zm42.737 0v1.303h1.692c1.975 0 3.386.47 4.233 1.41.61.706.916 2.574.916 5.605V40.48c0 2.328-.14 3.867-.42 4.62-.26.752-.767 1.315-1.52 1.69a6.688 6.688 0 01-3.207.813h-1.69v1.303H80.15l4.125-11.987h-1.41c-1.528 2.938-3.02 5.136-4.478 6.594-1.13 1.105-2.303 1.845-3.526 2.222-1.222.376-3.186.563-5.89.563h-8.11c-1.316 0-2.21-.128-2.68-.387-.47-.283-.8-.647-.988-1.094-.188-.47-.28-1.763-.28-3.88v-15.76h10.504c1.998 0 3.48.236 4.444.706s1.658 1.118 2.08 1.94c.33.66.66 2.151.99 4.48h1.303V15.656H74.93c-.14 2.727-.823 4.63-2.045 5.71-.917.824-2.74 1.236-5.468 1.236H56.912v-18.9h13.115c2.375 0 4.033.177 4.973.529 1.175.494 2.058 1.213 2.645 2.153.61.94 1.164 2.668 1.659 5.183h1.375l-.53-10.471z"/>
</svg>
